<?xml version="1.0" encoding="UTF-8"?><svg id="Layer_1" xmlns="http://www.w3.org/2000/svg" viewBox="0 0 1485.79 1041.74"><defs><style>.cls-1{fill:#eaa300;}.cls-2{fill:#243338;}.cls-3{fill:#1386a5;}</style></defs><path class="cls-2" d="M665.46,738.85c-2.96-.79-5.88-1.72-8.77-2.71,1.55.68,3.01,1.28,4.09,1.66,3.15,1.11,6.51,1.87,10.01,2.35-1.74-.39-3.51-.82-5.33-1.31Z"/><path class="cls-2" d="M770.68,736.2c-.89-.79-1.69-1.6-2.44-2.43-8.09,3.33-16.52,5.93-25.12,7.66-10.38,2.08-19.35,2.58-27.41,2.58-3.87,0-7.52-.11-11.03-.22-1.68-.05-3.41-.11-5.16-.18,10.3,2,20.76,3.38,31.21,4.06,5.35.35,10.79.53,16.15.53,12.04,0,24.2-.89,36.14-2.63l5.4-.79-5.2-1.6c-4.78-1.47-9-3.82-12.54-6.97ZM746.88,746.95c-.2,0-.41,0-.62,0,2.04,0,4.04,0,6.01-.05-1.77.04-3.56.06-5.39.06Z"/><path class="cls-2" d="M934.09,307.94c-.24-.26-.49-.41-.62-.48-2.13-1.17-30.34-14.43-38.34-18.19-5.59-2.44-11.18-4.87-16.77-7.31-.46-.2-.86-.47-1.22-.78-.92.2-.73-.74-.73-.74-1.1-1.39-1.4-3.28-.58-4.97,1.19-2.46,4.25-3.54,6.84-2.41l50.8,22.15c1.72-6.03,1.19-12.93.73-18.91l-.07-.95c-2.84-37.2-29.17-71.58-74.12-96.8-19.96-11.2-43.43-20.38-67.88-26.57-24.12-6.1-49.35-9.33-72.95-9.33-40.71,0-74.71,9.07-98.32,26.24-13.12,9.54-27.74,30.04-29,49.22-.6,9.11,1.87,16.76,7.32,22.78-9.46,1.38-13.76,6.67-13.12,16.11.28,4.1,3.26,5.89,5.89,7.47,2.45,1.47,4.06,2.55,4.29,4.68-8.16.68-14.61,3.95-17.41,8.86-1.72,3.02-2.86,8.1,1.45,15.1,1.16,1.88,2.95,3.34,4.69,4.75,2.3,1.86,4.32,3.51,4.69,5.81-8.36.46-13.79,2.8-16.16,6.98-3.84,6.8,1.06,16.81,6.38,25.28-.07,0-.14,0-.21,0-5.84,0-11.11,2.67-14.1,7.14-3,4.5-3.27,10-.73,15.11.99,1.99,2.83,3.34,4.62,4.65,1.74,1.28,3.59,2.32,3.92,4.23.11.64.02,1.19-.08,1.57l-1.92.03c-5.62.09-9.7,1.62-12.11,4.55-2.6,3.14-3.19,7.77-1.77,13.76,1.13,4.76,4.41,6.61,6.58,7.84.78.44,1.67.94,1.79,1.27,1.29,3.59.86,4.31.8,4.38,0,0-.12.1-.7.1-.37,0-.82-.04-1.28-.08-.56-.05-1.14-.1-1.74-.1-.88,0-1.61.12-2.24.37-3.91,1.54-7.07,4.86-8.46,8.89-1.25,3.62-.9,7.25,1,10.21,1.65,2.59,4.77,3.93,7.28,5.01,1.39.6,3.12,1.34,3.32,1.89.04.12-.06.33-.12.44-.56,1-2.42,1.53-4.58,2.15-4.94,1.42-12.41,3.55-12.87,14.87-.32,7.89,5.3,11.07,8.66,12.98.62.35,1.42.8,1.86,1.14-2.09,2.92-4.18,3.6-6.39,4.31-4.23,1.37-7.1,2.94-8.36,11.94-3.46,24.72.98,45.27,13.55,62.82,10.79,15.06,27.61,28.15,52.94,41.19,26.23,13.51,45.83,16.06,74.98,16.22h.21c3.92,0,7.72-.61,11.39-1.2,3.61-.58,7.02-1.13,10.46-1.13,2.51,0,4.78.3,6.92.91,1.34,1.05,2.93,5.13-.08,20.26-2.13,10.69-5.83,23.39-8.8,33.59-2.2,7.57-3.94,13.54-4.45,16.6-1.65,9.97-1.6,29.87,2.8,39.77,2.69,6.06,6.73,9.69,11,13.52-9.7-3.51-21.03-15.21-22.78-27.28-2.32-16.06,4.03-36.01,10.18-55.29,4.22-13.23,8.2-25.73,9.51-36.93l.18-1.5-1.58.14c-1.37.12-2.75.24-4.12.37-9.63.87-19.58,1.76-29.31,1.76-11.58,0-21.16-1.24-30.15-3.89l-.65-.19-.54.4-2.32,1.74-.41.31-.07.49c-1.69,11.16-5.18,23.49-8.55,35.42-4.5,15.91-9.15,32.36-9.95,47.09-.71,12.99,2.79,20.95,12.47,28.4l.63.48.73-.32c.66-1.21,1.56-3.08,2.24-5.48.54-1.92.87-3.97.41-13.86-.28-6-.62-9.76-.17-15.9.01-.18.02-.29.04-.46.87-9.48,4.17-17.16,5.14-19.41,1.41-3.25,8.47-20.46,21.17-20.45,3.6,0,7.48,1.19,11.56,3.53-3.01-.46-10.18-1.15-15.72,2.98-1.85,1.38-3.03,2.93-4.52,5.41-4.73,7.9-6.88,15.77-9.28,26.92-1.55,7.18-2.33,10.77-2.86,14.47-1.44,9.89-1.81,19.88-1.17,29.84l.33-.56c8.21,4.39,16.96,7.85,25.99,10.28,5.45,1.46,10.47,2.39,15.22,3.02l.98-5.64,2.41-13.93,2.42-1.14c1.41,4.23,2.29,8.6,2.64,13,.22,2.86.18,5.71-.05,8.56,4.18.29,8.19.42,12.15.55,10.49.33,21.33.67,34.98-2.07,7.3-1.46,14.46-3.64,21.36-6.41-.58-2-.89-3.8-1.06-5.25,2.12-2.82,4.2-5.25,6.21-7.61,4.63-5.42,9.01-10.54,12.34-18.76,4.43-10.94,7.8-23.06,11.06-34.78,4.25-15.31,8.65-31.14,15.53-44.92l.95-1.89-2.2.13-3.16.2c-7.36.46-14.97.94-22.71.94-25.28,0-38.03-5.89-45.4-11.57,16.82,4.25,33.13,6.4,48.56,6.4,21.69,0,40.46-4.28,55.8-12.73,17.41-9.6,30-24.41,37.4-44.04.54-1.44,1.76-5.79,2.96-11.31.97-4.5,1.46-7.9,1.58-8.7.52-3.67,1.03-8.49,1.12-14.22l-73.29-28.16c-3.17-1.22-4.7-4.64-3.42-7.65,1.28-3.01,4.89-4.46,8.06-3.24l72.84,27.99c1.74-3.75,3.44-7.97,4.94-12.64.85-2.64,1.55-5.18,2.14-7.6l-72.66-27.91c-3.17-1.22-4.7-4.64-3.42-7.65,1.28-3.01,4.89-4.46,8.06-3.24l11.9,4.57c-.08-.21,17.73,5.95,25.69,9.87l32.78,12.6c.23-.98.82-3.95,1.54-7.4-.72,1.18-1.31,2.38-1.76,3.57.45-1.2,1.04-2.39,1.76-3.58.05-.22.09-.44.14-.66l-2.05-.93,2.05.93c1.05-5.02,2.33-10.83,3.13-13.12l-1.21-.46c-.16.46-.31.93-.48,1.39.17-.45.32-.93.48-1.39l-69.72-26.79c-3.17-1.22-4.7-4.64-3.42-7.65,1.28-3.01,4.89-4.46,8.06-3.24l68.33,26.25,1.22.47c.16-.65.32-1.3.46-1.91l.15-.62c.68-2.81,2.79-11.88,4.12-18.07l-56.78-22.37-1.34-.53c-.56-.22-1.12-.44-1.68-.66l-5.16-2.03c-3.16-1.24-4.65-4.68-3.35-7.68,1.31-3,4.93-4.42,8.09-3.18l60.66,23.9c1.45-4.84,2.9-9.68,4.35-14.51-20.1-8.56-40.21-17.13-60.31-25.69-3.12-1.32-4.52-4.8-3.13-7.76,1.39-2.97,5.05-4.3,8.17-2.97,19.58,8.31,39.17,16.61,58.75,24.92,1.59-7.35,2.85-11.83,3.94-14.44.28-.68,1.01-2.34.23-3.69-.59-1.02-1.81-1.44-2.61-1.63-19.25-8.37-38.51-16.74-57.76-25.11-3.11-1.35-4.47-4.84-3.05-7.79,1.42-2.95,5.09-4.25,8.2-2.9l59.13,25.7c.46-2.89,1.2-6.2,2.37-9.79,1-3.06,2.15-5.77,3.28-8.1-4.9-1.83-9.8-3.66-14.7-5.48.08.12.16.23.24.35-.29-.21-.6-.43-.89-.64l-43.68-19.29c-2.58-1.14-3.7-4.05-2.5-6.51,1.2-2.45,4.27-3.52,6.85-2.38,19.01,8.39,38.02,16.79,57.03,25.18,1.11-3.75,2.03-6.88,2.88-9.51.36-1.12,1.09-3.36-.05-4.61ZM635.7,707.22c-1.87-1.44-3.49-2.88-4.87-4.36,1.38,1.48,3,2.92,4.87,4.36ZM642.19,597.45c-.25,1.62-.53,3.27-.84,4.92.31-1.66.6-3.3.84-4.92l1.3-.97-1.3.97ZM680.27,682.84s-.05-.04-.07-.06c.02.02.05.04.07.06h0ZM678.29,683.67c-2.3-1.96-6.63-5.09-12.86-6.56-3.43-.81-6.45-.89-8.74-.75-.21-6.41.47-11.64,1.16-15.3,0,0,2.06-10.97,8.01-16.91,1.06-1.06,2.03-.99,2.03-.99.05,0,.08,0,.09,0,0,0,.03.04.07.1l-6.42,27.13c-.05.2-.09.39-.14.59,1.24-.17,3.31-.29,5.7.39,1.39.4,2.5.95,3.3,1.44.07-.66.14-1.33.21-1.99l2.78-21.37,10.91-6.39c-1.63,5.09-3.17,10.99-4.3,17.62-1.47,8.66-1.88,16.45-1.8,23ZM691.18,706.19c.85,2.35,1.69,5.17,2.32,8.4-.63-3.23-1.47-6.05-2.32-8.4ZM877.82,516.15c-.28.69-.52,1.36-.69,2,.17-.64.41-1.32.69-2ZM876.24,532.47h0c-.67-.44-1.44-.88-2.29-1.34.85.46,1.62.91,2.29,1.34ZM889.31,457.27c.17-.15.26-.33.29-.54-.03.21-.12.39-.29.54-.06.05-.18.07-.33.08.15,0,.27-.02.33-.08ZM905.03,397.79c.18-1.96.94-3.79,2.01-5.56-1.06,1.77-1.82,3.6-2.01,5.56-.05.48-.05.96-.03,1.43-.02-.47-.01-.95.03-1.43ZM872.89,317.49c.3,0,.64.04.97.06-.35-.03-.71-.06-1.03-.06.02,0,.04,0,.07,0ZM755.09,162.51s.07,0,.1,0c.44,0,.88.03,1.31.1-.46-.07-.93-.09-1.41-.09ZM755.86,181.69c-1,1.16-1.85,2.3-2.53,3.39-.3.48-.57.98-.83,1.49.26-.51.54-1.02.83-1.49.67-1.09,1.53-2.23,2.53-3.39ZM719.18,143.88c1.53,0,3.06.01,4.59.04-1.77-.03-3.54-.04-5.3-.03.24,0,.47,0,.71,0ZM601.92,216.52c.09-1.36.31-3,.62-4.81-.32,1.8-.54,3.45-.62,4.81,0,.03,0,.06,0,.1,0-.03,0-.06,0-.1ZM601.9,241.85h0c-.73.05-1.43.12-2.1.21.67-.09,1.37-.16,2.1-.21ZM587.29,255.15c.02-4,1.12-7.02,3.26-9.17-2.14,2.15-3.24,5.18-3.26,9.17ZM589.69,261.42c3.14,2.72,8.28,3.67,7.85,8.88.43-5.2-4.71-6.16-7.85-8.88ZM573.45,316.71c-.22-6.6,4.15-11.44,17.56-11.85-13.41.41-17.78,5.25-17.56,11.85ZM579.67,337.18s.09,0,.14,0c-.5,0-.99.03-1.47.07.44-.03.88-.08,1.34-.08ZM560.37,373.93c.7-.83,1.54-1.55,2.56-2.13-1.03.58-1.87,1.3-2.56,2.13ZM562.95,401.62s.08,0,.11,0c-.08,0-.16,0-.24,0,.04,0,.08,0,.13,0ZM544.66,469.16c.33-.84.69-1.53,1.08-2.1-.39.57-.75,1.26-1.08,2.1ZM558.34,528.39l-10.83-25.41,10.83,25.41h0ZM683.72,593.59c-.07,0-.13,0-.19,0,.16,0,.31,0,.47,0-.09,0-.18,0-.28,0ZM755.04,654.24c9.16-.46,15.32,5.57,15.75,6.01,5.28,5.35,5.37,11.87,5.42,15.46.1,7.24-2.95,12.49-4.39,14.95-1.73,2.98-3.24,4.43-3.92,5.04-2.99,2.68-6.26,3.81-8.19,4.32.41-.9,2.12-2.65,3.09-3.65,1.4-1.44,2.72-2.8,3.32-3.99,3.46-6.98,5.74-21.18.8-28.58-2.07-3.1-5.28-4.74-9.27-4.74h-.07c-11.01.05-17.73,13.33-17.71,22.82.01,5.25,2.12,8.39,5.64,8.39.45,0,.93-.06,1.41-.16l.35-.08.26-.24,14.27-13.16c3.18,4.54,1.74,9.17.53,11.63-2.94,5.94-9.94,10.58-15.93,10.58-3.71,0-6.77-1.73-8.85-5.01-4.21-6.62-5.33-15.08-2.99-22.63,2.12-6.84,6.83-12.24,13.24-15.22,3.43-1.59,6.45-1.71,7.26-1.75ZM745.59,689.02s-.05,0-.08,0c-.13,0-.25-.03-.38-.04.15.01.3.03.45.03ZM742.08,639.84c1.22,1.06,1.83,2.1,1.87,3.17.09,2.6-3.24,5.57-6.46,8.43-2.53,2.25-5.14,4.57-6.53,7.05-9.66,17.18-8.64,29.71,3.64,44.71.59.72,1.47.99,2.24,1.11-1.56,1.03-3.18,1.55-4.81,1.55-9.64,0-18.96-17.42-19.28-25.65-.76-19.73,11.27-36.23,29.33-40.36ZM781.61,603.21c-.46,0-.93-.02-1.39-.03.67,0,1.34.02,2.01.02-.21,0-.41,0-.62,0ZM852.57,559.08c-.07.24-.16.5-.29.79-1.31,2.97-4.81,6.15-9.37,9.19,4.56-3.04,8.06-6.23,9.37-9.19.13-.29.22-.55.29-.79ZM828.48,559.51c-.1,0-.21.01-.31.01-.31,0-.6-.02-.9-.03.4.01.8.02,1.21.02ZM818.56,554.8c.18.51.43.95.7,1.36-.27-.41-.52-.86-.7-1.36h0ZM809.24,382.3c-.17,0-.33-.01-.5-.04-4.98-.77-9.87-2.05-14.55-3.79-5.2-1.94-10.14-4.51-14.73-7.57-5.86-2.4-12.01-5.05-17.91-7.6-11.08-4.79-21.55-9.31-27.45-10.94-24.79-6.85-51.04-7.65-68.63-7.65h-1.07s-.14,0-.14,0l-.14.03c-6.17,1.33-10.2,7.14-13.75,12.27-1.28,1.85-2.49,3.59-3.72,5.03l-.23.27-.05.34c-.26,1.81-.36,2.97.36,3.75.62.67,1.53.67,2.02.67h.39c.15,0,.31,0,.48,0,.27,0,.69,0,1.19.05,2.58.25,5.64.37,9.33.37,5.47,0,11.67-.23,13.02-.3,5.64-.32,15.39.19,33.42,3.67l1.82.24c19.59,2.61,38.09,10.38,55.99,17.89,12.45,5.23,25.32,10.63,38.55,14.31-.06.31-.11.61-.17.91-1.16,6.33-1.59,7.46-4.25,7.46-1.45,0-3.51-.38-6.91-1.26-6.53-1.7-14.32-5.34-21.85-8.86-5.85-2.74-11.91-5.56-17.21-7.39-20.61-7.08-60.42-18.96-95.42-18.96-9.27,0-17.74.84-25.19,2.49-10.91,2.42-15.56,10.96-18.1,17.18l-.28.69.51.56c2.21,2.44,5.07,3.63,8.73,3.63,2.65,0,5.42-.6,8.1-1.19,2.43-.53,4.73-1.03,6.89-1.1,4.09-.13,8.12-.2,11.97-.2,44.11,0,72.77,8.47,113.32,25.15,1.28.53,3.17,1.22,5.36,2.01,8.12,2.96,27.12,9.89,27.14,15,0,1.78-2.75,3.26-5.24,4.23-9.86-3.45-19.55-7.16-28.92-10.76-31.68-12.15-61.59-23.63-97.51-25.35-2.63-.13-8.03-.34-14.53-.34-21.95,0-34.93,2.28-38.57,6.77-1.68,2.07-4.83,7.81-3.28,11.39.45,1.04,1.51,2.35,3.96,2.66,2.67.34,5.72.5,9.33.5s7.43-.16,11.11-.32c3.66-.16,7.45-.32,11.04-.32,2.09,0,3.94.05,5.65.16,36.14,2.33,83.94,14.36,124.75,31.4.68.29,1.63.66,2.71,1.08,3.13,1.23,8.36,3.29,9.44,4.25,1.04.93,2.14,2.4,1.44,4.05-.77,1.83-3.43,3.11-6.47,3.11-.14,0-.29,0-.44,0-7.36-.28-23-6.62-36.8-12.21-8.35-3.38-16.23-6.58-21.7-8.22-12.88-3.85-46.57-12.81-81.28-12.81-9.38,0-18,.69-25.63,2.04-6.78,1.2-11.68,4.19-13.11,7.99-.76,2.02-.92,5.28,2.67,9.34l.39.44h68.1c1.11,0,3.6.49,6.94,1.31,10.76,1.31,21.25,3.62,31.26,6.92,4.9,1.62,8.37,3.04,12.38,4.68,2.76,1.13,5.88,2.41,10.04,3.99,11.17,4.24,22.74,7.94,34.42,11.05.25.02.49.07.73.15.41.14.85.28,1.3.41,2.71.78,5.77,1.2,9.1,1.26.96-1.11,2.44-2.88,3.31-4.11,1.37-1.94,2.22-4.05,2.52-6.28.22-1.61,1.78-2.76,3.47-2.53,1.69.21,2.89,1.68,2.67,3.29-.43,3.13-1.61,6.09-3.52,8.79-1.55,2.19-4.51,5.53-4.63,5.67-.58.65-1.43,1.03-2.33,1.05-.23,0-.45,0-.68,0-4.22,0-8.12-.5-11.61-1.49,0,0-.01,0-.02,0-12.57-3.27-25.04-7.24-37.04-11.8-4.23-1.61-7.4-2.9-10.19-4.05-1.61-.66-3.08-1.26-4.57-1.84,3.03,21.27,14.87,39.98,35.24,55.63,17.15,13.17,40.14,23.6,64.75,29.37l1.02.24c4.56.65,8.3.67,10.92.54,4.34-.2,9.43-.98,12.16-1.45,2.57-.45,5-.88,6.87-1.01.36-.02.76-.07,1.17-.11.68-.07,1.38-.15,1.98-.15.81,0,1.04.14,1.06.16-.01,0,.06.33-.33,1.21-4.18,9.44-32.83,21.64-43.53,22.65-1.72.16-3.52.25-5.35.25-16.26,0-36.19-6.38-56.11-17.95-15.38-8.94-34.22-19.37-43.11-37.49-2.06-4.2-3.01-7.6-3.32-8.78-4-15.11.82-28.33,3.83-34.86l.15-.82-.75-.44c-1.99-1.16-3.77-2.55-5.35-3.77-2.7-2.1-5.03-3.91-7.5-3.91-2.79,0-5.05,2.21-7.33,7.15-6.14,13.35-5.42,43.52,1.15,58.26,6.4,8.25,15.13,14.98,23.73,21.25,4.77,3.55,9.52,7.15,14.2,10.85,4.92,3.42,9.45,6.94,12.74,10.62-.14,0-.28.01-.42.01-2.62,0-4.23-1.42-5.67-2.99-8.4-4.19-16.54-8.72-24.55-13.5-9.54-5.22-18.42-11.83-25.08-19.76-2.09-1.99-3.92-3.99-5.36-5.98-9.76-13.53-7.88-34.39-6.22-52.79.43-4.81.84-9.35,1.03-13.55l.04-.91-.9-.3c-.42-.14-.84-.29-1.27-.44-2.93-1.01-6.26-2.16-9.34-2.16-3.46,0-6.04,1.46-7.68,4.35-2.05,3.6-5.2,27.77-5.12,32.69.24,16.14,5.74,28.2,14.09,38.26,4.13,4.38,9.34,9.15,15.86,15.02,5.73,4.5,11.9,8.76,18.16,13.08,1.48,1.02,2.98,2.06,4.47,3.1.2.1.39.19.56.28,1.97.92,4.37,1.92,6.36,3.09-6.49-4.67-13.1-9.1-19.45-13.61,6.34,4.51,12.96,8.94,19.45,13.61.92.54,1.74,1.12,2.39,1.75,1,.74,2.01,1.46,3.01,2.21-.99-.75-2-1.47-3.01-2.21.5.48.92.98,1.17,1.53.36.8.15,1.17.05,1.31-.65.89-3.1.55-4.12.4-5.11-.71-13.43-5.05-16.81-6.88-7.71-4.59-11.57-6.89-15.79-10.26-9.15-7.31-19.85-16.04-26.99-26.95-1.81-2.77-3.27-5.64-4.46-8.59-1.81-3.43-2.92-6.92-3.02-10.4-1.57-8.45-1.28-17.2-.03-25.71v-20.22l-.65-.36-5.09-2.79-.34-.19-.4.03c-2.11.14-3.98,1.11-5.55,2.86-6.79,7.59-6.43,28.93-5.77,35.81.83,8.63,2.72,15.74,5.45,21.94,4.76,8.11,12.19,15.83,23.73,27.67,2.5,2.56,4.61,4.53,6.39,6.09,1.31,1.04,2.65,2.08,4.01,3.15.54.42,1.1.86,1.64,1.29.06.04.13.09.18.13,4.16,2.84,6.24,4.26,7.71,5.05,1.74.93,3.85,1.93,5.66,3.09.29.13.55.27.77.43.34.25.64.52.92.81.93.78,1.68,1.62,2.05,2.56.34.86.14,1.27.05,1.42-.61.96-2.94.59-3.91.44h0c-4.84-.77-12.73-5.46-15.94-7.44-7.31-4.97-10.96-7.45-14.97-11.11-8.67-7.91-18.81-17.36-25.58-29.16-9.19-16.04-9.32-35.11-6.49-52.79v-8.2c0-2.39-3.72-4.17-7.04-4.17-.66,0-1.29.07-1.86.21-5.1,1.24-7.52,7.92-8.51,15.85,0,.15,0,.31.02.46-.6,10.85.88,19.64,2.29,25.51,1.07,4.45,6.49,25.44,21.64,40.32,1.49,1.46,2.9,2.81,4.23,4.05,2.83,2.53,5.75,5.02,8.7,7.54.93.8,1.88,1.61,2.82,2.42.75.58,1.16.88,1.16.88,3.42,2.49,7.13,4.91,6.79,5.49-.39.67-5.87-1.55-8.64-2.78-7.09-3.16-11.79-6.72-13.64-8.19,0,0-2.96-2.54-5.86-5.32-9.91-9.46-17.38-21.1-21.8-33.68-1.79-4.38-3.06-8.66-3.73-12.69-.19-1.13-.28-2.75-.32-4.65-.7-5.98-.68-12.05.06-18.08-.11-7.72-.74-12.79-2.9-14.29l-.43-.29-.52.07-8.8,1.16-.66.09c.06,2.88.12,5.71.34,8.49.09,2.59,1.45,38.57,8.34,50.33,5.87,10.01,8.54,13.46,8.54,13.46,2.46,3.19,4.68,5.59,4.19,6.11-.61.64-4.84-1.93-7.37-3.77-1.87-1.36-3.27-2.64-4.2-3.55-1.18-1.5-2.34-3.02-3.44-4.57,0,0-1.66-2.38-3.11-4.78-.86-1.43-1.65-2.99-2.38-4.61-.95-1.48-1.89-2.97-2.77-4.49.88,1.52,1.82,3.01,2.77,4.48-5.74-12.78-7.47-30-7.47-30-.65-6.45-1.02-15.15,0-25.47l-1.57.32-9.84,2-.66.13-.26.59c-.14.32-.26.63-.4.95-.38,4.66-.88,9.29-.96,13.92-.2,7.82,1.35,15.41,2.89,23.18-3.01-5.29-4.71-10.16-5.68-14.33l-.93-2.17c-.11-1.26-.16-2.73-.14-4.32-.07-.8-.12-1.56-.15-2.24-.51-12.15,3.72-24.82,4.98-24.68,2.02-4.04,21.58-9.14,32.01-9.14,1.29,0,2.31.09,3.05.25l1.41.32.18-1.36,2.19-16.27.2-1.48-1.57.09-11.96.7-20.01,2.31c-.25.03-.5.04-.75.04-.75,0-1.48-.13-2.15-.37.04.2.06.38.1.58h0c-.05-.21-.06-.38-.1-.58-2.1-.74-3.69-2.54-3.98-4.8-.41-3.22,2-6.15,5.4-6.54l33.88-3.91c3.01-1.15,5.35-2.99,6.44-6.02,1.74-4.82,1.76-8.26.06-10.52-.08-.11-.18-.21-.27-.31l-32.48,3.75c-.25.03-.5.04-.75.04-3.09,0-5.75-2.19-6.13-5.17-.41-3.22,2-6.15,5.4-6.54l4.92-.57c3.03-.88,6.79-1.51,10.66-2.16,9.52-1.58,20.32-3.38,24.77-9.88,2.18-3.19,2.65-7.26,1.38-12.11l-.17-.66c-.45.16-.91.28-1.41.34l-33.95,3.91c-.25.03-.5.04-.75.04-3.09,0-5.75-2.19-6.14-5.17-.41-3.22,2-6.15,5.4-6.54l3.09-.36.02-.05,1.14-.09,28.55-3.29-.18-.47-6.65-17.62-17.98,2.13c-.26.03-.52.05-.77.05-3.08,0-5.74-2.18-6.13-5.15-.42-3.22,1.99-6.16,5.38-6.56l18.65-2.21c9-3.86,16.1-9.72,20.54-21.59l-30.18,3.57c-.26.03-.52.05-.77.05-.94,0-1.84-.23-2.65-.59h-.07s0-.02.01-.03c-1.81-.84-3.16-2.49-3.42-4.53-.42-3.22,1.99-6.16,5.38-6.56l9.12-1.08c2.11-.5,4.32-1.02,6.37-1.5,20.12-4.69,24.58-6.1,25.12-7.95l.05-.17v-.17s-.14-14.06-.14-14.06l-34.26,4.05c-.26.03-.52.05-.77.05-.77,0-1.51-.14-2.2-.39h0c-2.06-.75-3.64-2.53-3.93-4.76-.42-3.22,1.98-6.16,5.38-6.56l14.1-1.67c3.8-.79,7.82-1.31,11.5-1.8,8.25-1.08,14.78-1.93,16.57-5.01.96-1.65,3.06-12.17,2.52-16.53l-34.9,4.13c-.26.03-.52.05-.77.05-.69,0-1.35-.12-1.98-.33l-.32.05c-.05-.07-.07-.14-.1-.21-1.96-.79-3.45-2.52-3.73-4.67-.42-3.22,1.98-6.16,5.38-6.56l34.28-4.05c1.6-.51,3-1.28,4.11-2.55,2.2-2.53,2.89-6.74,2.2-13.25l-.1-.92-.96-.16c-1.29-.22-2.65-.33-4.06-.33-4.78,0-9.49,1.26-13.64,2.37-3.2.85-6.21,1.66-8.52,1.66-.66,0-2.24-.34-3.53-1.19-.75-.5-3.68-2.71-2.82-12.74.9-10.42,4.9-17.71,7.91-23.07,5.84-10.38,9.35-10.95,10.92-10.95.19,0,.36.02.54.06-6.41,6.76-9.43,13.16-10.94,17.27-1.46,3.97-4.6,12.53-.87,15.6,1.33,1.09,3.05,1.09,3.33,1.09,2.29-.03,6.8-1.61,16.19-23.14,5.95-13.65,7.97-21.96,15.87-24.92,1.74-.65,2.68-.83,3.18-.86-4.07,5.54-7.13,10.38-9.27,13.96,0,0-13.09,21.92-9.06,28.6.68,1.13,1.66,1.73,1.66,1.73.86.54,1.89.82,3.08.82.21,0,.43,0,.66-.03,6.54-.52,10.45-9.51,14.97-19.92,5.66-13.03,12.08-27.81,24.79-30.63.83-.19,1.68-.29,2.39-.29,1.12,0,1.59.24,1.69.39.07.1.09.38-.06.82-7.99,4.55-27.98,32.84-25.25,43.74.74,2.96,3.11,4.59,6.67,4.59,1.55,0,3.38-.3,5.45-.88,4.17-1.18,8.35-9.21,14.25-21.31,3.12-6.41,6.07-12.46,8.51-15.43,5.42-6.6,15.66-14.24,23.41-15.58l.57-.1c1.08-.19,2.42-.44,3.56-.44.9,0,1.53.15,1.76.43.16.19.21.54.16,1-13.21,7.51-34.87,29.22-30.64,45.46l.1.4.34.26c3.11,2.37,5.95,3.51,8.68,3.51,7.7,0,12.04-9.3,15.88-17.5,1.62-3.47,3.16-6.76,4.82-9.16,10.91-15.83,19.63-19.72,30.16-20.85.49-.05,1.27-.12,2.2-.12,2.72,0,4.74.53,5.4,1.43.09.12.32.43.26,1.09-.11,0-.21,0-.32,0-5.41,0-11.84,4.29-17.65,11.76-5.27,6.78-9.17,15.13-10.18,21.78-1.08,7.16,1.18,11.89,6.36,13.34,1.51.38,2.91.57,4.18.57,8.19,0,10.6-7.25,12.94-14.26,1.03-3.08,2.09-6.27,3.62-8.75,4.23-6.86,15.58-15.44,23.34-17.66,3.06-.88,6-1.3,8.98-1.3.42,0,.84.03,1.25.05,2.56-.45,5.4.12,7.4.54,16.1,3.33,24.18,4.99,33.48,8.81,3.91,1.6,7.84,3.36,11.67,5.23,1.52.74,2.12,2.51,1.34,3.96s-2.65,2.01-4.17,1.27c-3.71-1.81-7.51-3.52-11.3-5.07-.86-.35-1.71-.68-2.56-1-2.01-.48-4.04-1.01-6.06-1.54-6.02-1.58-11.7-3.07-16.04-3.07-1.78,0-3.22.25-4.41.75-3.97,1.69-10.56,13.24-14.13,19.97-4.54,8.55-9.3,19.05-9.6,22.57-.18,2.11.4,3.97,1.55,5.65,4.72,1.68,11.2,4.22,19.38,7.63,11.35,4.72,22.89,9.81,34.28,15.12,1.53.72,2.17,2.48,1.41,3.93-.54,1.04-1.64,1.64-2.78,1.64-.46,0-.92-.1-1.36-.3-1.42-.66-2.84-1.31-4.26-1.96l-51.29-21.4c-.17-.06-.37-.13-.53-.18-9.22-2.99-18.72-5.2-28.29-6.7-7.41-.51-14.99-1.34-22.41-2.14-12.27-1.34-24.95-2.72-36.99-2.72-4.3,0-8.22.17-11.99.52-12.13,1.12-19.44,4.13-21.71,8.93-1.66,3.52-.57,7.82,3.25,12.81l.43.56.72-.05c12.2-.93,24.16-1.4,35.55-1.4,25.68,0,47.65,2.35,65.3,6.99,6.91,1.82,29.91,10.96,49.17,19.41.19.05.39.08.58.16l31.04,11.55c.82-1.61,1.68-3.38,2.28-4.79,1.59-3.77,2.47-7.98,2.61-12.5.05-1.62,1.46-2.91,3.19-2.85,1.71.05,3.05,1.41,3,3.03-.17,5.21-1.2,10.09-3.06,14.51-.15.36-.32.74-.5,1.13-1.09,2.42-2.58,5.28-3.51,7.03-.06.37-.14.74-.29,1.1-.8,1.93-2.74,3.11-4.8,3.11-.63,0-1.26-.11-1.88-.34l-3.86-1.44c-5.68-1.4-14.09-4.72-22.82-8.49l-5.17-1.92c-.71-.26-1.31-.67-1.81-1.15-4.96-2.22-9.81-4.46-14.07-6.43-7.47-3.45-13.37-6.17-16.24-7.19-25.23-8.88-52.69-10.69-71.15-11.27-1.18-.04-2.51-.09-3.96-.15-3.94-.16-8.85-.36-13.95-.36-19.13,0-30.14,2.97-33.67,9.08-2.31,4.01-1.35,9.22,2.87,15.5l.41.6.75-.04,62.8-2.95c13.29,2.01,28.59,4.64,41.52,8.92,12.79,4.23,25.21,9.59,37.22,14.77,7.36,3.18,14.91,6.4,22.58,9.42l10.14,3.78c.06.02.1.05.16.08.44.16.88.33,1.33.48.01.12.02.22.03.34,1.58,1.32,2.22,3.48,1.41,5.45-.8,1.93-2.74,3.11-4.8,3.11-.63,0-1.26-.11-1.88-.34l-3.64-1.35c-.18-.04-.35-.06-.54-.1-6.95-1.42-15.77-5.17-25.29-9.51l-2.38-.89c-.58-.22-1.08-.53-1.52-.9-.97-.45-1.93-.89-2.91-1.34-10.94-5.06-22.25-10.3-31.82-12.99-15.36-4.32-34.02-7.24-52.52-8.2-1.57-.08-4.51-.13-8.08-.13-4.86,0-47.61.13-51.89,4.67-1.97,2.09-5.17,15.4-3.29,17.84l.52.67.85-.21c11.6-2.88,24.04-4.33,37-4.33,25.53,0,53.94,5.56,86.86,17.01,3.62,1.26,11.24,4.55,19.31,8.03,18.76,8.1,32.34,13.84,36.22,13.84h.08c1.23-.02,2.24-.28,3.05-.71.26-.56.51-1.11.72-1.61,1.59-3.77,2.47-7.98,2.61-12.5.05-1.62,1.42-2.92,3.19-2.85,1.71.05,3.05,1.41,3,3.03-.17,5.21-1.2,10.09-3.06,14.51-1.59,3.77-4.74,9.52-4.88,9.76-.54.98-1.6,1.58-2.74,1.58-.16,0-.33-.01-.5-.04-4.47-.69-8.87-1.81-13.11-3.3-7.72-1.02-14.4-6.33-28.55-12.67-7.26-3.25-14.12-6.32-18.22-7.74-20.38-7.06-50.43-15.39-80.33-16.21-4.23.1-8.45.32-12.66.63-1.09.16-2.2.34-3.34.52-4.14.67-8.43,1.37-12.55,1.37-.37,0-.69-.04-1.05-.05-2.05.29-4.1.59-6.13.99,1.95,19.2,14.68,21.86,28.16,21.86,3.39,0,6.98-.18,10.45-.36,3.52-.18,7.16-.36,10.65-.36,1.92,0,3.63.05,5.24.17,16.82,1.17,42.19,9.5,42.19,9.5,8.34,2.83,19.02,6.79,31.23,12.21l1.32.51,34.7,13.41.17.07.18.02c.28.03.55.04.81.04,1.7,0,2.99-.57,4-1.49,0-.02.02-.04.03-.06,1.59-3.77,2.47-7.98,2.61-12.5.05-1.62,1.52-2.91,3.19-2.85,1.71.05,3.05,1.41,3,3.03-.17,5.22-1.2,10.1-3.06,14.51-1.59,3.77-4.75,9.52-4.88,9.76-.54.98-1.6,1.58-2.74,1.58ZM703.67,367.38c-.06,0-.13,0-.19,0-.09,0-.18,0-.28-.01.16,0,.31,0,.47,0ZM660.41,366.26c-.09,0-.18,0-.27,0-.01,0-.03,0-.04,0,.1,0,.21,0,.31,0ZM648.92,365.84c-.05,0-.13,0-.18,0,0,0-.01,0-.02,0,.06,0,.13,0,.2,0ZM657.26,376.45c-.15,0-.3,0-.45,0,.11,0,.21,0,.32,0,.04,0,.09,0,.13,0ZM632.24,378.9s0,0,0,0c-2.6.58-4.84,1.51-6.8,2.74,1.96-1.22,4.2-2.16,6.8-2.74,0,0,0,0,0,0ZM649.78,408.44h-.76c.11,0,.23,0,.35,0,.14,0,.27,0,.41,0ZM621.96,427.27c-.38,0-.78.02-1.16.02-.04,0-.09,0-.13,0,.42,0,.86-.01,1.29-.02ZM611.66,426.8s0,0-.01,0c-.78-.1-1.39-.32-1.87-.64.47.32,1.09.54,1.87.64,0,0,0,0,0,0ZM777.57,487.31s-.07,0-.11,0c-.06,0-.14-.01-.19-.01.1,0,.21,0,.31,0ZM640.49,439.93c-1.28,0-2.54.04-3.81.06,1.19-.02,2.37-.06,3.57-.06.08,0,.16,0,.24,0ZM690.09,475.5s-.06,0-.1,0c.02,0,.03,0,.05,0,.02,0,.03,0,.05,0ZM657.12,471.28c-.13,0-.26-.02-.39-.01.02,0,.04,0,.05,0,.11,0,.22.01.33.02ZM671.69,577.85c-1.05-.37-2.21-.75-3.35-1.3,1.14.55,2.3.93,3.35,1.3ZM634.63,522.84c-.04-.51-.06-1.03-.06-1.55h0c0,.52.02,1.03.06,1.55ZM620.13,517.07c-.32-1.9-.58-3.88-.78-5.95-.04-.48-.09-1.04-.13-1.67.04.63.09,1.19.13,1.67.2,2.07.46,4.05.78,5.95ZM603.27,473.68c-.24-.02-.48-.02-.72-.02.05,0,.09-.02.14-.02.19,0,.39.02.58.04ZM596.11,539.51c-5.57-8.33-9.52-17.39-11.1-26.84-.22-1.31-.32-3.2-.35-5.42.03,2.23.13,4.11.35,5.42,1.59,9.44,5.54,18.5,11.1,26.84ZM580.96,476.64l-7.38.97h0l7.38-.97ZM558.07,447.01l32.95-1.92h0l-32.95,1.92ZM587.24,431.17c1.12-.22,2.18-.49,3.16-.83-.98.34-2.04.61-3.16.83ZM594.22,428.26c1.05-.89,1.86-2,2.36-3.39.01-.03.02-.05.03-.07,0,.03-.02.05-.02.07-.5,1.39-1.31,2.5-2.36,3.39ZM573.59,371.92h0l24.42-1.9-24.42,1.9ZM630.52,225.32c.07,0,.14-.01.21-.01.1,0,.19,0,.29.01-.17,0-.33,0-.5,0ZM635.31,209.11c-.19.02-.37.02-.55.02-.08,0-.14-.01-.21-.02.24,0,.49.02.76,0ZM661.12,207.79c-.16,0-.33.02-.48.02-.22,0-.39-.03-.6-.05.35.02.69.04,1.08.02ZM696.2,178.63c2.88-3.96,6.31-7.74,9.87-11.07-3.56,3.33-6.99,7.11-9.87,11.07ZM696.85,205.14s-.04,0-.06,0c0,0-.02,0-.03,0,.03,0,.06,0,.09,0ZM738,207.47s-.06,0-.09,0c-.01,0-.03,0-.04,0,.05,0,.09,0,.14,0ZM803.87,177.28c-.73-.07-1.44-.11-2.1-.11.01,0,.02,0,.03,0,.65,0,1.35.05,2.06.11ZM684.76,219.06c-1.03-.02-2.06-.02-3.08-.02.24,0,.47-.01.7-.01.79,0,1.58.02,2.37.03ZM670.52,219.54c-6.76.63-14.34,2.07-18.38,5.4,4.04-3.33,11.62-4.77,18.38-5.4ZM826.05,307.02h0c-1.91-.65-3.78-1.36-5.67-2.06,1.89.69,3.76,1.4,5.67,2.06ZM679.12,249.52c-.66,0-1.32,0-1.98,0,.53,0,1.07,0,1.6,0,.13,0,.26,0,.39,0ZM816.53,337.34h-.05c-.09,0-.21-.02-.31-.02.12,0,.26.03.36.02ZM761.44,294.12c-3.59-1.41-7.05-2.63-10.31-3.55-4.57-1.29-9.36-2.42-14.26-3.41,4.9.99,9.69,2.13,14.26,3.41,3.25.92,6.72,2.14,10.31,3.55ZM692.4,282.3c-.5,0-1.02,0-1.56,0,.02,0,.04,0,.06,0,.52,0,1.02,0,1.5,0ZM641.07,301.85c-1.44.31-2.87.63-4.3.99-.08-.1-.14-.25-.19-.43.05.18.11.33.19.43,1.43-.35,2.87-.68,4.3-.99ZM639.56,287.13c.14-.24.28-.44.41-.58.11-.12.27-.23.45-.34-.18.11-.34.23-.45.34-.13.14-.27.34-.41.58ZM817.29,352.66c-.28-.34-.59-.69-.92-1.04h0c.33.35.63.7.92,1.04ZM807.48,369.05c-.13,0-.24.05-.38.05-.22,0-.44-.01-.67-.04.38.04.72.01,1.05,0ZM675.57,311.01c-.97-.01-1.94-.04-2.9-.04h.3c.86,0,1.73.03,2.6.04ZM670.34,333.9c-.06,0-.11,0-.17,0-.17,0-.33,0-.49,0,.22,0,.44,0,.66,0ZM864.77,319.54s0,0-.01,0c0,0,0,0,.01,0,0,0,0,0,0,0,0,0,0,0,0,0ZM870.56,222.18l-39.92,154.79c-.15,1.33-.3,2.65-.42,3.96l-2.56,7.59-3.37,13.06c-.27,1.03-.95,1.86-1.83,2.38-.2.1-.4.2-.6.29-.52.21-1.09.33-1.68.31-.29,0-.59-.04-.88-.11-2.21-.51-3.57-2.64-3.03-4.74l43.11-167.18c.6-4.64,1.3-9.35,2.69-13.78.31-.98.33-1.74.35-2.25,0,0,0-.02,0-.02.02,0,.04,0,.06,0,.37,0,.89.03,1.69.11.67,0,2,.07,3.35.85,2.61,1.51,2.98,4.35,3.03,4.74ZM877.56,282.34s-.05-.01-.08,0c0,0,.01,0,.02,0,.02,0,.05,0,.07.01.1-.01.22-.02.33-.02.05,0,.11.01.17.01-.17,0-.35-.01-.5,0Z"/><path class="cls-2" d="M571.97,476.99c.09-.14.17-.29.24-.44l-.38.05.14.39Z"/><path class="cls-1" d="M613.19,376.45c10.47-10.59,20.95-21.19,31.42-31.78l.8-.65-.47-.9c-5.37-11.54-10.73-23.08-16.1-34.63-1.39-2.86-2.78-5.73-4.18-8.59-3.09,4.06-6.18,8.2-9.27,12.42-7.02,9.6-13.65,19.08-19.89,28.42h0c5.89,11.9,11.79,23.81,17.68,35.71Z"/><path class="cls-1" d="M911.7,672.28c.41-.1.79-.16,1.18-.22,0,0,0,0-.01-.01-.38.06-.77.14-1.17.23Z"/><path class="cls-1" d="M1133.46,708.19s0,0,0,0c.09.06.19.12.28.18-.09-.06-.18-.12-.27-.18Z"/><path class="cls-1" d="M224.69,523.25s.01,0,.02-.01c-.18,0-.35.01-.53.02.17,0,.34,0,.51,0Z"/><path class="cls-1" d="M962.69,651.15c-.62-.22-1.25-.44-1.86-.66.63.24,1.27.46,1.91.68-.02,0-.03-.01-.05-.02Z"/><path class="cls-1" d="M1138.45,709.75c-.3.03-.6.02-.9,0,0,0,.01,0,.02,0,.14.01.27.03.41.03.15,0,.31-.02.47-.03Z"/><path class="cls-1" d="M907.33,674.12c.07-.14.12-.26.14-.37.67-.3,1.31-.55,1.93-.78-.62.23-1.26.47-1.93.77-.02.1-.07.23-.14.37Z"/><polygon class="cls-1" points="727.78 75.07 727.54 74.97 727.78 75.07 727.78 75.07"/><path class="cls-1" d="M359.47,697.68l53.51-17.31c-.67-4.38-1.27-9.53-1.79-15.47-19.35,6.22-35.74,12.08-47.42,16.37-1.48,5.54-2.9,11-4.3,16.41Z"/><path class="cls-1" d="M734.59,132.71c4.13.09,7.91.43,11.27.9.59,0,1.17,0,1.76,0l-.18-1.66c-.08-6.14-.25-15.21-.68-26.19-1.15-29.62-4.35-78.73-7.88-78.44-.69.06-1.16,1.87-2.03,5.5-2.68,11.14-5.78,24.8-8.98,40.64-.11.51-.22,1.01-.33,1.52l.23.1h0s-.23-.1-.23-.1c-1.87,8.7-3.75,17.4-5.62,26.1-.75,2.84-1.44,5.84-2.04,8.99-1.51,7.93-2.15,15.28-2.29,21.85l-.24,1.71h1.82c4.41-.61,9.61-1.03,15.42-.91Z"/><path class="cls-1" d="M901.31,188.44c1.53,1.45,2.11,2.01,2.5,2.39,1.06,1.04,2.08,2.07,3.06,3.09.72.82,3.05,3.47,3.05,3.47h0s.52.91.74.96c1.35.3,4.6-12.94,4.6-12.94,3.89-15.86,6.14-32.08,9.74-48.01.4-1.75.76-3.33.21-3.7-2.16-1.48-13.27,19.12-24.6,40.15-.5.94-1.17,2.97-1.78,4.6-1.53,4.06-2.05,4.55-1.79,5.58.15.6.37.71,4.29,4.42Z"/><path class="cls-1" d="M548.91,176.32c2.12,6.03,3.37,9.36,5.7,15.03,0,0,2.06,5.01,4.45,10.28,2.6,5.75,7.56,15.89,14.42,28.63.61.89,1.51,2.14,2.69,3.57,1.5,1.81,1.72,1.8,1.8,1.77.36-.14.38-1.56-1.28-7.54-.05-.29-.34-1.95-.46-3.15-.13-1.37-.02-1.08-.19-4.42-.05-1.03-.13-2.42-.13-4.38h0c.86-6.8,2.44-8.6,1.99-13.53-.49-5.37-2.91-9.26-4.45-11.67-2.04-3.21-4.08-6.4-6.09-9.55-.75-1.17-1.11-2.09-1.36-2.59-3.17-6.22-7.61-12.73-9.28-15.15-7.21-10.47-19.87-28.85-21.45-27.88-.42.25.02,1.78,1.12,4.6,2.49,6.4,9.89,28.48,12.54,35.99Z"/><path class="cls-1" d="M215.62,523.76c-.92.6-1.55,1.25-1.91,1.67l-.32.36v.48c.05,4.46,9.03,5.06,17.81,5.06,2.72,0,5.38-.07,7.73-.13.08,0,.14,0,.22,0,3.15.13,6.29.27,9.44.4,29.43,1.25,36.39,4.42,36.39,4.42,1.21.22,2.59.46,4.08.71,4.04-9.39,8.2-18.78,12.43-28.08-7.1.7-28.19,2.86-48.13,6.46-10.99,1.98-9.41,2.19-15.99,3.13,0,0-7.86,1.12-19.38,4.46-.42.12-1.34.4-2.37,1.07ZM222.62,523.25c-.17,0-.34,0-.51,0,.18,0,.35-.02.53-.02,0,0-.01,0-.02.01Z"/><path class="cls-1" d="M976.04,570.03h0s3.52,6.44,8.28,10.77c0,0,2.98,2.71,7.65,4.89,34.6,16.13,157.26,24.4,157.26,24.4,3.5.24,7.76.53,7.96-.25,1.13-4.26-96.17-27.07-133.19-35.54-4.11.61-8.63,1.03-13.51,1.1-13.96.21-25.75-2.49-34.45-5.38Z"/><path class="cls-1" d="M1137.49,709.74s.05,0,.08,0c0,0-.01,0-.02,0-.02,0-.04,0-.06,0Z"/><path class="cls-1" d="M412.98,680.37l-53.51,17.31c-.13.49-.25.99-.38,1.48l54.09-17.5c-.07-.42-.14-.86-.2-1.29Z"/><path class="cls-1" d="M1039.09,426.3c4.91,3.7,18.22-14.08,56.97-39.47,15.49-10.15,28.09-18.71,37.84-25.71,4.92-3.3,9.83-6.58,14.74-9.83,4.17-3.32,6.77-6.65,8.37-9.05,1.78-2.69,1.75-3.41,1.53-3.81-1.12-2-9.15.37-12.48,1.55-33.18,11.75-66.35,23.5-99.53,35.24-.74,4.18-2.52,14.11-4.88,27.1-3.64,20.05-4.21,22.74-2.55,23.99Z"/><path class="cls-1" d="M913.94,510.53c-2.04-8.44-3.19-18.27-3.19-18.27-.7-6.56-1.05-13.54-1.12-20.84-1.97,7.88-4.71,17.84-8.58,29.87-.94,3.85-2.31,9.7-3.82,16.86-1.93,9.16-2.83,14.63-3.49,17.99-.5,2.55-3.68,18.29-11.38,32.96-17.15,32.71-48.13,42.37-52.08,43.78-1.17.42-2.81.48-4.56.55-2.19.09-4.68.19-6.91,1.03-3.89,1.47-3.99,6.79-6.81,15.67-.93,2.94-2.4,7.04-4.72,11.85-4.68,12.02-7.81,22-9.82,28.94-4.49,15.51-5.75,20.16-9.96,30.34-1.43,3.46-5.82,10.44-9.7,16.59-5.46,8.67-7.66,12.29-7.83,13.87-1.2.5-2.42.99-3.65,1.46-18.95,7.3-45.31,12.76-80.14,8.22-42.95-5.72-66.3-23.97-68.19-25.7-.02-.02-1.75-1.6-3.08-2.82-.58-1.45-1.3-3.7-2.2-7.31-1.43-5.75-2.04-9.86-2.32-12.04-.24-1.86-.52-3.38-.44-3.9,1.1-6.71,3.18-16.62,4.02-20.57,1.77-8.31,4.31-16.97,6.76-25.33,3.5-11.93,7.12-24.27,8.81-36.44l.15-1.06-1.07-.33c-5.57-1.72-11.97-5.5-18.17-9.16-5.03-2.97-5.11-2.57-15.96-8.21-5.66-2.95-8.5-4.42-10.82-5.84-2.2-1.35-3.82-2.58-5.53-3.89.12.47.24.94.34,1.42,1.7,1.2,3.16,2.33,4.21,3.37.91.9,1.06,1.87.91,2.72.15-.85,0-1.82-.91-2.72-1.05-1.04-2.51-2.17-4.21-3.37,2.89,12.99,2.02,25.72.15,33.59l-3.2,13.44-14.41,1.61c-4.77.53-12.08,1.85-18.92,3.16.61,16.32,1.37,31.31,2.24,44.39.24-.22.5-.44.74-.66-.24.22-.5.44-.74.66.04.56.07,1.12.11,1.68.18-.16.37-.32.55-.48,1.95,2.09,3.96,4.14,5.98,6.18v.59c0,1.92,35.98,63.79,126.83,81.45,20.6,4,78.17,14.49,134.13-14.58,13.74-7.14,24.07-14.94,30.98-20.8,5.95-4.29,11.52-8.5,16.18-12.1,21.64-16.73,46.35-38.12,49.41-43.63,2-.85,3.82-1.35,5.46-1.51.13.13.23.27.37.39,5.07,3.88,9.98,7.62,14.78,11.27,1.35,1.46,2.87,2.73,4.7,3.58,2.56,1.94,5.07,3.86,7.55,5.73,8.36,6.31,16.73,12.63,25.09,18.94,1.95,1.47,3.86,2.9,5.75,4.31,2.44,1.82,4.88,3.65,7.32,5.47,8.02,5.98,15.38,11.41,22.09,16.32l-.12.24.96.62c1.12.73,2.26,1.48,3.39,2.22,23.19,16.87,37.85,26.79,43.99,29.74,1.13.76,2.26,1.53,3.4,2.28l1.82,1.21.3-2.09c-5.91-7.8-14.81-18.99-26.59-31.76-9.02-9.77-7.87-7.9-20.1-20.41-15.7-16.06-31.92-32.67-48.81-47.84-1.59-1.42-3.58-2.74-5.69-3.94-6.94-7.1-13.88-14.2-20.81-21.3,2.69-1.29,5.39-1.93,8.24-1.93,4.99,0,9.8,1.91,14.9,3.93,3.43,1.36,6.98,2.77,10.74,3.64,6.84,3.12,12.54,5.18,16.42,6.47,6.79,2.25,11.16,3.19,20.16,6.33,3.81,1.33,6.89,2.5,8.82,3.26l-.12.33,1.36.38,2.78.77c22.27,9,46.78,17.75,73.46,25.63,13.96,4.12,27.54,7.72,40.65,10.86,2.46.7,4.71,1.32,6.79,1.87.3.02.6.03.9,0-.16.01-.31.03-.47.03-.14,0-.27-.02-.41-.03,10.98,2.93,16.73,3.87,17.18,2.79.39-.91-3.03-3.28-10.26-7.09l-69.26-47.7-1.43-.99-.18.44c-2.31-1.61-4.62-3.21-6.93-4.82-11.19-8.57-47.8-34.13-51.89-36.07-2.51-1.75-5.03-3.49-7.54-5.24l.39-.73-1.12.22c-3.26-2.27-6.53-4.54-9.79-6.81-2.61-1.76-6.35-4.33-10.79-7.5-18.04-12.89-28.87-20.63-39.07-30.99-16.18-16.43-28.75-37.37-32.95-54.75ZM907.48,673.75c-.02.1-.07.23-.14.37.07-.14.12-.26.14-.37.67-.3,1.31-.55,1.93-.77-.62.23-1.26.47-1.93.78ZM911.7,672.28c.4-.1.79-.17,1.17-.23,0,0,0,0,.01.01-.39.06-.77.12-1.18.22ZM1133.46,708.19c.09.06.18.12.27.18-.09-.06-.19-.12-.28-.18,0,0,0,0,0,0ZM962.69,651.15s.03.01.05.02c-.64-.22-1.28-.45-1.91-.68.62.23,1.24.45,1.86.66Z"/><path class="cls-1" d="M402.03,778.62c.39.4,2.47-.7,6.24-3.29,19.54-14.19,39.07-28.38,58.61-42.57-6.19-.96-11.66-2.42-16.5-4.24-33.48,32.11-49.61,48.82-48.35,50.1Z"/><path class="cls-1" d="M413.77,293c5.82,5.71,13.24,12.79,22.25,21.22,2.16,2.02,1.85,1.72,2.25,2.1,8.15,7.74,13.65,14.48,17.06,19.04l.03.03.03.02,4,3.59c8.31-1.39,15.8-2.09,22.63-2.09,3.25,0,6.33.16,9.28.47-8.75-5.73-32.5-21.35-65.33-44.1-1.32-.91-3.55-2.46-6.34-4.4-5-3.47-9.99-6.94-14.99-10.41-4.07-2.68-6.32-3.8-6.74-3.36-.61.64,2.72,4.66,9.94,11.99.5.87,2.24,2.67,5.92,5.9Z"/><path class="cls-1" d="M451.61,210.76l21.1,33.19c2.93,4.77,5.94,9.6,9.08,14.3,12.02,18.93,25.62,40.37,40.5,63.86,7.57,12.77,15.14,25.54,22.7,38.32.5.84,1,1.69,1.5,2.53l.97-2.76c-.87-4.92-.56-8.89-.17-11.42.14-.93.5-3.01,1.34-5.59.82-2.54,1.8-4.63,2.66-6.23,1.43-2.44,2.9-4.15,4-5.27,1.88-1.92,2.81-2.27,3.47-3.8.18-.42.57-1.45,0-5.75-.55-4.18-1.13-4.84-1.09-7.19.03-2.08.51-3.58,1.09-5.34.8-2.44,2.44-6.33,5.98-10.62.42-.26,2.42-1.47,2.91-3.91.22-1.11,0-2.61-.48-4.28-.57-1.46-1.13-2.92-1.69-4.39-1.3-2.75-3-5.6-4.79-7.99-2.15-2.87-20.23-18.08-22.61-19.8-33.59-33.72-86.15-85.24-105.5-97.36-1.98-1.66-3.43-2.82-3.85-3.02-.99-.48-2.04-.72-3.11-.72-2.87,0-5.57,1.89-5.65,3.96-.1,2.32,9.1,17.2,18.42,28.52,3.71,5.8,8.16,12.78,13.24,20.76Z"/><path class="cls-1" d="M1247.75,527.68s.04-.02.06-.03c-.01,0-.02,0-.03.01-.01,0-.02.01-.03.02Z"/><path class="cls-1" d="M323.94,356.13c.84.51,2.09,1.28,3.63,2.26l41.02,27.16c2.2-2.74,4.32-5.12,6.32-7.05,4.07-3.98,8.61-8.08,13.87-12.11-32.56-13.45-60.29-23.32-68.8-21.6-1.08.22-4.22.86-4.78,2.61-.98,3.07,6.79,7.56,8.74,8.73Z"/><polygon class="cls-1" points="951.72 407.32 951.71 407.32 951.71 407.32 951.72 407.32"/><path class="cls-1" d="M955.21,382.3s0,0,0,0c.34-.32.71-.66,1.1-1.04-.39.37-.75.71-1.09,1.03Z"/><polygon class="cls-1" points="952.88 406.45 952.88 406.45 952.87 406.46 952.88 406.45"/><path class="cls-1" d="M1040.25,302.51c.12,0,.22-.05.34-.05-.11,0-.21.02-.32.02,0,0-.02.02-.02.03Z"/><path class="cls-3" d="M517.19,552.09c-1.08-82.03-1.3-162.76-4.76-176.09-5.06-19.51-25.95-24.22-64.54-15.19-28.57,6.68-44.76,18.05-58.33,31.32-22.11,21.33-77.97,133.85-111.23,226.95-3.14,1.39-8.18,3.58-14.47,6.11-11.61,4.67-20.36,7.62-23.16,8.59-51.14,17.57-67.09,22.1-99,31.17-1.86.53-6.16,1.68-9.47-.32-1.91-1.15-3.16-3.29-4.02-6.62-11.73-45.21,41.71-216.24,35.29-240.99-5.43-20.94-33.58-26.98-74.55-16.89-18.55,41.2-71.93,228.87-53.16,301.21,8.77,33.79,57.5,61.77,95.59,52.86,0,0,28.53-.72,117.7-40.16.01,0,5.08-2.25,5.08-2.25,0,0,0,0,0,0,.15,0-1.72,18.11.59,25.4,2.8,8.82,17.04,18.45,69.15,20.67,6.48-28.27,13.86-59.28,22.61-91.11,21.81-8.13,50.01-18.26,83.6-28.14.93,22,2.49,38.29,4.59,46.38,8.4,32.36,48.2,34.16,89.8,24.43-2.55-22.13-4.43-56.01-5.55-93.11,15.66-3.16,29.32-5.85,37.58-6.77,1.53-6.42,1.94-17.12-.65-27.11-4.69-18.08-16.54-28.94-38.7-30.32ZM428.49,568.8l-57.53,18c17.08-50.95,36.79-99.98,59.85-142.23-1.89,37.8-2.93,82.98-2.32,124.23Z"/><path class="cls-3" d="M1413.37,358.03c-1.08-82.03-1.3-162.76-4.76-176.09-5.06-19.51-25.95-24.22-64.54-15.19-28.57,6.68-44.76,18.05-58.33,31.32-22.11,21.33-77.97,133.85-111.23,226.95-3.14,1.39-8.18,3.58-14.47,6.11-11.61,4.67-20.36,7.62-23.16,8.59-51.14,17.57-67.09,22.1-99,31.17-1.86.53-6.16,1.68-9.47-.32-1.91-1.15-3.16-3.29-4.02-6.62-11.73-45.21,41.71-216.24,35.29-240.99-5.43-20.94-33.58-26.98-74.55-16.89-18.55,41.2-71.93,228.87-53.16,301.21,8.77,33.79,57.5,61.77,95.59,52.86,0,0,28.53-.72,117.7-40.16.01,0,5.08-2.25,5.08-2.25,0,0,0,0,0,0,.15,0-1.72,18.11.59,25.4,2.8,8.82,17.04,18.45,69.15,20.67,6.48-28.27,13.86-59.28,22.61-91.11,21.81-8.13,50.01-18.26,83.6-28.14.93,22,2.49,38.29,4.59,46.38,8.4,32.36,48.2,34.16,89.8,24.43-2.55-22.13-4.43-56.01-5.55-93.11,15.66-3.16,29.32-5.85,37.58-6.77,1.53-6.42,1.94-17.12-.65-27.11-4.69-18.08-16.54-28.94-38.7-30.32ZM1324.67,374.75l-57.53,18c17.08-50.95,36.79-99.98,59.85-142.23-1.89,37.8-2.93,82.98-2.32,124.23Z"/><path class="cls-3" d="M239.31,849.9c-9.4,13.31-25.58,14.9-42.32,4.23l-14.37-9.16-12.34,17.45-11.83-7.54,42.75-60.48,26.2,16.7c16.74,10.67,21.37,25.4,11.9,38.8ZM227.39,842.3c5.37-7.6,3.12-15.43-7.25-22.04l-13.83-8.82-16.98,24.02,13.83,8.82c10.37,6.61,18.85,5.63,24.23-1.98Z"/><path class="cls-3" d="M170.55,863.77l-13.52-8.62,43.9-62.11,27.01,17.22c9.43,6.01,15.24,13.38,16.8,21.29,1.25,6.35-.35,12.89-4.61,18.92h0c-9.72,13.75-26.45,15.47-43.67,4.49l-13.57-8.65-12.34,17.45ZM159.88,854.59l10.14,6.46,12.34-17.45,15.18,9.68c16.23,10.35,31.92,8.83,40.96-3.96,4-5.65,5.44-11.5,4.28-17.38-1.45-7.37-6.95-14.28-15.91-19.99l-25.4-16.19-41.59,58.84ZM215.9,849.7c-4,0-8.48-1.52-13.27-4.58l-14.71-9.38,18.13-25.65,14.63,9.33c5.94,3.79,9.41,8.02,10.3,12.59.71,3.61-.22,7.27-2.77,10.88h0c-3.21,4.54-7.4,6.82-12.31,6.82ZM190.76,835.18l12.94,8.25c9.77,6.23,17.68,5.64,22.87-1.71,2.22-3.14,3.04-6.29,2.45-9.34-.79-4.01-3.95-7.8-9.42-11.29l-13.02-8.3-15.82,22.38Z"/><path class="cls-3" d="M292.02,922.73c-8.62,1.4-20.12-1.13-31.13-6.73-20-10.16-25.89-23.31-19.79-34.14,4.14-7.34,11.87-10.26,19.88-9.25-3.82-5.36-4.16-12.03-.75-18.08,5.58-9.91,19.72-13.82,39.33-3.86,8.6,4.37,16.07,10.52,20.41,16.5l-8.9,7.63c-4.38-6.12-10.09-10.55-16.66-13.89-11.4-5.79-18.89-4.64-21.94.77-3.1,5.5-.6,10.55,7.42,14.63l17.88,9.08-5.58,9.91-18.55-9.42c-8.89-4.52-16-4.47-19.41,1.59-3.2,5.69.23,12.39,12.89,18.82,8.5,4.32,18.3,6.35,26.03,5.2l-1.11,11.24Z"/><path class="cls-3" d="M287.01,924.11c-7.93,0-17.32-2.52-26.57-7.22-11.89-6.04-19.44-13.42-21.84-21.32-1.46-4.82-.9-9.72,1.62-14.2,3.76-6.68,10.71-10.3,18.83-9.93-2.97-5.37-2.9-11.74.3-17.41,6.63-11.77,22.59-13.44,40.66-4.26,8.5,4.31,16.26,10.6,20.76,16.81l.54.75-10.43,8.94-.64-.89c-4.02-5.61-9.35-10.05-16.3-13.58-10.08-5.12-17.59-4.98-20.61.37-1.14,2.02-1.44,3.97-.89,5.79.82,2.7,3.47,5.21,7.89,7.46l18.81,9.56-6.57,11.65-19.41-9.86c-6.18-3.14-14.33-5.48-18.09,1.19-1.04,1.84-1.26,3.75-.68,5.68,1.19,3.93,5.74,8,13.15,11.76,8.46,4.3,17.97,6.21,25.43,5.1l1.27-.19-1.31,13.28-.76.12c-1.64.27-3.37.4-5.18.4ZM257.95,873.42c-6.91,0-12.76,3.22-15.98,8.94-2.28,4.04-2.77,8.29-1.45,12.64,2.23,7.37,9.43,14.33,20.83,20.12,10.5,5.34,21.55,7.83,29.76,6.75l.91-9.22c-7.64.79-17.01-1.21-25.36-5.46-8.02-4.08-12.79-8.44-14.16-12.97-.75-2.47-.46-4.91.85-7.24,3.54-6.28,10.9-6.98,20.74-1.99l17.7,8.99,4.6-8.16-16.95-8.61c-4.92-2.5-7.92-5.41-8.9-8.66-.71-2.36-.36-4.83,1.06-7.35,1.71-3.04,7.4-9.23,23.26-1.17,6.88,3.49,12.24,7.86,16.37,13.32l7.37-6.32c-4.39-5.72-11.61-11.46-19.5-15.46-17.03-8.65-31.95-7.3-38.01,3.46-3.21,5.69-2.95,11.89.69,17.01l1.32,1.85-2.26-.28c-.98-.12-1.95-.18-2.9-.18Z"/><path class="cls-3" d="M357.63,956.9l-5.95-25.39c-.95-.26-1.87-.62-2.78-.97l-16.01-6.25-8.5,19.63-13.18-5.14,29.16-67.37,29.19,11.39c18.65,7.28,26.29,20.84,19.83,35.76-4.42,10.2-13.14,15.57-24.31,15.38l6.74,28.51-14.19-5.54ZM364.37,893.15l-15.41-6.01-11.62,26.85,15.4,6.01c11.55,4.51,19.7,1.84,23.37-6.63,3.67-8.47-.19-15.71-11.74-20.22Z"/><path class="cls-3" d="M373.23,964.06l-16.45-6.43-5.94-25.33c-.79-.25-1.56-.55-2.3-.84l-15.11-5.9-8.5,19.63-15.04-5.87,29.96-69.21,30.09,11.74c10.59,4.14,17.86,10.31,21,17.85,2.47,5.93,2.26,12.58-.62,19.23-4.38,10.12-12.86,15.76-23.96,15.98l6.88,29.13ZM358.49,956.15l11.92,4.66-6.59-27.91,1.29.02c10.86.2,19.17-5.06,23.37-14.77,2.7-6.23,2.9-12.17.61-17.67-2.93-7.03-9.81-12.83-19.88-16.76l-28.29-11.04-28.37,65.54,11.31,4.41,8.5-19.63,16.91,6.6c.91.36,1.78.69,2.68.94l.57.16,5.97,25.45ZM362.81,923.14c-3.14,0-6.64-.73-10.42-2.21l-16.37-6.39,12.42-28.69,16.3,6.37c6.66,2.6,10.96,6.12,12.77,10.46,1.41,3.38,1.25,7.11-.47,11.09-2.67,6.18-7.65,9.37-14.22,9.37ZM338.68,913.43l14.44,5.64c10.73,4.19,18.57,2.03,22.08-6.09,1.5-3.46,1.66-6.67.46-9.53-1.59-3.82-5.51-6.97-11.65-9.37h0l-14.51-5.66-10.83,25.02Z"/><path class="cls-3" d="M424.73,930.63l-1.89,5.98,32.01,9.1-3.46,10.97-32.01-9.1-8.42,26.71-13.65-3.88,13.76-43.66c5.34-16.95,20.62-23.68,40.67-17.98,8.29,2.36,15.31,6.2,19.7,11.14l-7.63,9.34c-3.75-4.43-9.25-7.3-15.02-8.94-12.7-3.61-20.83.05-24.07,10.32Z"/><path class="cls-3" d="M411.63,975.52l-15.57-4.43,14.07-44.64c5.54-17.56,21.2-24.53,41.89-18.64,8.77,2.49,15.74,6.45,20.18,11.44l.57.64-8.94,10.93-.78-.92c-3.28-3.87-8.3-6.85-14.53-8.62-12.05-3.43-19.74-.18-22.84,9.65l-1.58,5,32.01,9.1-4.06,12.87-32.01-9.1-8.42,26.71ZM398.59,969.73l11.72,3.33,8.42-26.71,32.01,9.1,2.86-9.06-32.01-9.1,2.19-6.96c3.44-10.91,12.19-14.7,25.3-10.98,6.14,1.74,11.19,4.62,14.72,8.36l6.34-7.76c-4.17-4.36-10.75-7.97-18.65-10.22-19.53-5.55-34.27.92-39.44,17.32l-13.46,42.68Z"/><path class="cls-3" d="M475.27,954.32c4.2-21.17,24.53-33.73,47.89-29.56,23.37,4.18,37.51,22.8,33.3,44.07-4.22,21.27-24.53,33.73-47.89,29.56-23.37-4.18-37.49-22.9-33.3-44.07ZM542.35,966.31c2.9-14.62-6.32-27.18-21.5-29.89-15.18-2.71-28.58,5.8-31.48,20.42-2.9,14.63,6.32,27.18,21.5,29.89,15.18,2.71,28.58-5.8,31.48-20.42Z"/><path class="cls-3" d="M517.58,1000.2c-2.99,0-6.06-.27-9.19-.83-12.27-2.19-22.44-8.4-28.63-17.47-5.49-8.03-7.43-17.9-5.47-27.78h0c4.34-21.89,24.97-34.65,49.05-30.35,12.29,2.2,22.47,8.4,28.66,17.46,5.48,8.02,7.41,17.89,5.45,27.79-3.77,19.04-19.88,31.18-39.86,31.18ZM514.19,924.95c-19.03,0-34.36,11.5-37.94,29.56h0c-1.85,9.35-.02,18.67,5.16,26.26,5.89,8.63,15.6,14.53,27.33,16.63,22.96,4.1,42.62-7.99,46.74-28.77,1.88-9.51.11-18.59-5.14-26.28-5.88-8.61-15.6-14.51-27.36-16.62-3-.54-5.94-.8-8.8-.8ZM516.53,988.24c-1.9,0-3.84-.17-5.83-.53-7.9-1.41-14.49-5.47-18.56-11.43-3.82-5.59-5.15-12.57-3.75-19.64,3-15.13,16.72-24.05,32.63-21.21,7.9,1.41,14.49,5.47,18.56,11.44,3.82,5.59,5.15,12.57,3.75,19.63-2.63,13.25-13.47,21.74-26.81,21.74ZM515.25,936.91c-12.39,0-22.46,7.85-24.89,20.12-1.3,6.54-.07,12.97,3.44,18.12,3.76,5.51,9.89,9.28,17.26,10.59,14.79,2.64,27.54-5.61,30.32-19.63h0c1.3-6.54.07-12.97-3.44-18.12-3.76-5.51-9.89-9.28-17.26-10.6-1.85-.33-3.66-.49-5.43-.49Z"/><path class="cls-3" d="M628.04,1010.9l-14.03-22.34c-.99.04-1.98-.03-2.96-.1l-17.27-1.17-1.59,21.18-14.21-.97,5.46-72.65,31.48,2.14c20.11,1.36,31.83,11.96,30.62,28.05-.83,11-7.34,18.7-18.01,21.83l15.8,25.06-15.3-1.04ZM613.41,948.36l-16.61-1.13-2.18,28.96,16.61,1.13c12.46.85,19.31-4.11,20-13.25.69-9.13-5.36-14.86-17.82-15.71Z"/><path class="cls-3" d="M645.24,1013.07l-17.77-1.21-14-22.29c-.83,0-1.64-.05-2.43-.11l-16.33-1.11-1.59,21.18-16.2-1.1,5.61-74.65,32.47,2.2c11.5.78,20.46,4.52,25.92,10.82,4.22,4.87,6.17,11.2,5.64,18.31-.82,10.92-7.01,18.8-17.47,22.32l16.16,25.63ZM628.62,1009.94l12.83.87-15.46-24.52,1.27-.37c10.37-3.05,16.51-10.49,17.29-20.95.5-6.65-1.23-12.32-5.15-16.85-5.1-5.89-13.59-9.39-24.54-10.13l-30.48-2.07-5.31,70.66,12.21.83,1.59-21.18,18.26,1.24c1.02.07,1.93.13,2.85.09l.58-.02,14.06,22.39ZM613.82,978.41c-.86,0-1.74-.03-2.65-.09l-17.62-1.19,2.33-30.95,17.6,1.19c7.23.49,12.48,2.57,15.61,6.19,2.4,2.77,3.46,6.33,3.14,10.59-.69,9.15-7.35,14.26-18.42,14.26ZM595.7,975.26l15.61,1.06c11.55.79,18.28-3.59,18.93-12.32.28-3.7-.61-6.77-2.65-9.13-2.77-3.2-7.56-5.05-14.24-5.51l-15.62-1.06-2.03,26.96Z"/><path class="cls-3" d="M783.59,961.06l3.22,44.95-14.21.92-3.18-44.43c-.86-12.04-8.68-16.96-18.41-16.33-10.82.7-18.3,6.71-17.36,19.79l3.1,43.29-14.21.92-3.18-44.44c-.86-12.04-8.03-17-17.76-16.37-10.82.7-18.63,6.73-17.69,19.81l3.1,43.29-14.21.92-5.2-72.67,13.77-.89.68,9.55c4.12-6.94,12.03-11.42,22.64-12.1,10.93-.71,19.43,2.92,23.97,9.61,4.63-7.39,13.53-12.03,24.35-12.73,17.6-1.14,29.24,8.02,30.59,26.92Z"/><path class="cls-3" d="M671.86,1014.43l-5.34-74.67,15.77-1.02.55,7.68c4.68-5.98,12.29-9.56,21.78-10.17,10.36-.67,19.01,2.55,24,8.87,4.98-6.96,13.75-11.31,24.32-11.99,18.76-1.21,30.3,8.94,31.65,27.84l3.29,45.96-16.21,1.05-3.25-45.43c-.75-10.46-7.07-16.07-17.35-15.41-5.64.36-10.09,2.24-12.87,5.42-2.77,3.17-3.97,7.65-3.56,13.3l3.17,44.3-16.21,1.05-3.25-45.43c-.76-10.61-6.69-16.09-16.69-15.45-5.76.37-10.31,2.3-13.17,5.57-2.78,3.19-3.99,7.62-3.59,13.17l3.17,44.3-16.21,1.05ZM668.66,941.63l5.06,70.68,12.22-.79-3.03-42.29c-.44-6.1.94-11.03,4.08-14.63,3.21-3.68,8.24-5.84,14.55-6.25,11.12-.72,17.98,5.59,18.82,17.3l3.11,43.45,12.22-.79-3.03-42.29c-.44-6.21.92-11.17,4.05-14.76,3.13-3.59,8.06-5.7,14.25-6.1,11.37-.74,18.65,5.72,19.47,17.26l3.11,43.44,12.22-.79-3.15-43.95c-1.26-17.65-12.03-27.12-29.53-25.99-10.52.68-19.11,5.15-23.57,12.26l-.81,1.3-.86-1.27c-4.47-6.59-12.67-9.85-23.08-9.18-10.03.65-17.78,4.77-21.84,11.61l-1.63,2.75-.84-11.74-11.78.76Z"/><path class="cls-3" d="M878.22,947.07l8.82,39.49-13.93,2.81-4.09-18.32-39.01,7.86,4.09,18.32-13.72,2.76-8.82-39.49c-4.78-21.37,6.08-35.47,26.01-39.49,19.94-4.02,35.88,4.68,40.65,26.06ZM866.54,959.96l-2.52-11.3c-3.02-13.54-12.07-18.42-23.96-16.02-11.9,2.4-18.07,10.34-15.05,23.88l2.52,11.3,39.01-7.86Z"/><path class="cls-3" d="M819.62,1001.17l-9.04-40.45c-2.29-10.25-1.08-19.4,3.49-26.44,4.67-7.19,12.73-12.12,23.3-14.25,21.47-4.32,37.11,5.7,41.83,26.82l9.05,40.49-15.89,3.2-4.09-18.32-37.05,7.47,4.09,18.32-15.68,3.16ZM846.69,921.06c-2.83,0-5.81.31-8.93.93-10.03,2.02-17.65,6.65-22.02,13.38-4.27,6.58-5.39,15.2-3.22,24.91l8.61,38.54,11.76-2.37-4.09-18.32,40.97-8.26,4.09,18.32,11.97-2.41-8.6-38.49c-3.77-16.87-14.92-26.23-30.56-26.23ZM826.76,968.99l-2.74-12.25c-1.51-6.76-.85-12.39,1.97-16.73,2.76-4.24,7.42-7.05,13.86-8.35,13.2-2.66,22.13,3.3,25.14,16.78l2.75,12.3-40.97,8.25ZM845.54,933.06c-1.67,0-3.43.19-5.29.56-5.89,1.19-10.13,3.7-12.58,7.48-2.51,3.87-3.08,8.99-1.69,15.21l2.31,10.34,37.05-7.46-2.3-10.3c-2.31-10.34-8.44-15.82-17.5-15.82Z"/><path class="cls-3" d="M968.98,916.99l14.42,40.73-13.5,4.31-14.25-40.24c-4.43-12.53-13.42-16.36-24.01-12.97-11.42,3.65-17.22,12.41-12.4,26.03l13.79,38.96-13.5,4.31-24.44-69.04,13.09-4.18,3.07,8.68c2.85-8.26,9.66-13.84,19.63-17.03,17.24-5.5,31.4,1.5,38.1,20.44Z"/><path class="cls-3" d="M918.91,979.36l-25.11-70.93,14.99-4.79,2.52,7.11c3.31-7.04,9.78-12.14,19.27-15.17,18.21-5.81,32.55,1.87,39.35,21.06l14.77,41.71-15.41,4.92-14.57-41.15c-4.02-11.37-12.11-15.76-22.77-12.35-5.72,1.83-9.81,4.96-11.85,9.06-2.12,4.27-2.09,9.54.08,15.68l14.14,39.93-15.41,4.92ZM896.37,909.71l23.77,67.15,11.59-3.7-13.45-37.99c-2.36-6.67-2.36-12.47.01-17.24,2.28-4.6,6.79-8.08,13.03-10.07,11.68-3.73,20.88,1.23,25.26,13.59l13.92,39.32,11.59-3.7-14.08-39.76c-6.39-18.04-19.82-25.26-36.85-19.82-9.94,3.18-16.33,8.69-18.99,16.4l-.93,2.7-3.7-10.46-11.18,3.57Z"/><path class="cls-3" d="M993.19,914.93c-9.66-19.72-.75-40.99,20.62-50.43,11.33-5,22.96-5.44,32.93-1.12l-4.69,11.14c-7.61-2.95-15.12-2.73-22.37.47-14.41,6.37-20.12,20.6-13.47,34.19,6.66,13.59,21.8,18.6,36.21,12.24,7.25-3.21,12.26-8.52,14.74-16.04l12.04,3.86c-2.95,10.02-10.79,18.19-22.21,23.24-21.26,9.39-44.14,2.17-53.8-17.55Z"/><path class="cls-3" d="M1028.1,937.6c-15.18,0-28.82-7.97-35.81-22.24h0c-4.54-9.27-5.21-19.4-1.88-28.54,3.67-10.06,11.83-18.32,22.99-23.25,11.59-5.12,23.57-5.52,33.73-1.12l.91.39-5.46,12.95-.91-.35c-7.27-2.82-14.54-2.67-21.6.45-6.97,3.08-12.06,8.2-14.32,14.4-2.14,5.88-1.68,12.25,1.35,18.43,6.34,12.95,21.03,17.9,34.91,11.76,7.07-3.13,11.85-8.32,14.2-15.44l.31-.94,13.92,4.46-.28.94c-3.01,10.24-11.09,18.72-22.77,23.88-6.45,2.85-13.01,4.22-19.29,4.22ZM994.09,914.49c9.4,19.18,31.48,26.36,52.5,17.07,10.77-4.76,18.32-12.43,21.37-21.68l-10.17-3.26c-2.63,7.2-7.66,12.48-14.96,15.7-14.9,6.58-30.68,1.24-37.51-12.71-3.22-6.58-3.73-13.68-1.43-19.99,2.45-6.72,7.92-12.24,15.39-15.55,7.27-3.21,14.75-3.49,22.22-.83l3.93-9.33c-9.44-3.76-20.48-3.24-31.21,1.5-10.65,4.71-18.44,12.56-21.92,22.11-3.19,8.74-2.57,18.07,1.8,26.97h0Z"/><path class="cls-3" d="M1144.21,872.49c-3.19,7.73-11.42,15.77-22.16,21.83-19.5,11-34.4,9-41-1.56-4.48-7.16-3.11-14.95,1.94-20.95-6.8.33-12.99-2.83-16.69-8.74-6.05-9.66-2.26-23.18,16.86-33.97,8.38-4.73,17.79-7.62,25.43-8.05l2.28,11.18c-7.78.4-14.73,2.74-21.13,6.36-11.12,6.27-13.95,12.96-10.64,18.23,3.36,5.37,9.2,5.94,17.02,1.53l17.43-9.83,6.05,9.66-18.09,10.21c-8.67,4.89-12.3,10.7-8.61,16.6,3.47,5.55,11.29,6.22,23.63-.74,8.29-4.68,15.18-11.59,18.14-18.47l9.56,6.71Z"/><path class="cls-3" d="M1098.4,902.65c-7.93,0-14.3-3.13-18.2-9.36-4.08-6.52-3.76-14.05.76-20.48-6.36-.34-12.05-3.68-15.51-9.2-2.71-4.33-3.47-9.24-2.21-14.21,1.98-7.79,8.7-15.11,19.42-21.16,8.28-4.67,17.95-7.73,25.86-8.18l.86-.05,2.69,13.17-1.16.06c-7.14.36-13.91,2.4-20.69,6.23-6.37,3.6-10.24,7.49-11.2,11.25-.49,1.95-.19,3.83.91,5.58,3.08,4.92,8.36,5.32,15.68,1.19l18.26-10.3,7.11,11.36-19,10.72c-5.29,2.98-8.51,6.25-9.32,9.45-.48,1.9-.12,3.84,1.07,5.75,3.43,5.48,11.34,5.09,22.29-1.08,8.24-4.65,14.87-11.38,17.72-17.99l.49-1.13,11.22,7.88-.31.74c-3.27,7.93-11.51,16.06-22.6,22.32-8.83,4.98-17.1,7.46-24.14,7.46ZM1085.22,870.7l-1.48,1.75c-5.11,6.07-5.8,13.46-1.85,19.77,6.73,10.76,21.93,11.23,39.66,1.22,10.2-5.76,18.13-13.41,21.41-20.61l-7.91-5.56c-3.25,6.64-9.9,13.23-18.06,17.83-16.22,9.15-22.6,4.18-24.97.4-1.5-2.39-1.94-4.85-1.32-7.3.97-3.8,4.42-7.4,10.28-10.7l17.18-9.69-4.98-7.96-16.6,9.37c-10.5,5.93-15.78,2.25-18.36-1.87-1.38-2.21-1.78-4.68-1.16-7.14,1.09-4.31,5.3-8.63,12.16-12.5,6.69-3.78,13.39-5.88,20.42-6.41l-1.88-9.2c-7.46.6-16.41,3.51-24.13,7.87-10.24,5.78-16.63,12.67-18.47,19.91-1.13,4.43-.45,8.8,1.96,12.65,3.49,5.57,9.24,8.59,15.79,8.27l2.29-.11Z"/><path class="cls-3" d="M1226.89,770.51l27.04,31.16-11,8.6-12.54-14.46-30.79,24.09,12.54,14.46-10.83,8.47-27.04-31.16c-14.63-16.87-11.87-34.14,3.87-46.45,15.73-12.31,34.11-11.58,48.74,5.29ZM1222.8,787.06l-7.73-8.91c-9.27-10.68-19.66-11.05-29.05-3.7-9.39,7.34-11,17.1-1.74,27.79l7.74,8.91,30.79-24.09Z"/><path class="cls-3" d="M1201.19,844.21l-27.66-31.88c-7.17-8.26-10.53-17.08-9.71-25.5.8-8.25,5.54-16,13.72-22.39,16.94-13.25,35.68-11.22,50.12,5.42l27.73,31.96-12.57,9.84-12.54-14.46-29.21,22.85,12.54,14.46-12.4,9.71ZM1200.27,757.82c-7.17,0-14.5,2.71-21.5,8.19-7.74,6.05-12.22,13.32-12.96,21.01-.76,7.86,2.43,16.16,9.23,23.99l26.41,30.45,9.25-7.24-12.54-14.46,32.37-25.32,12.54,14.46,9.42-7.37-26.35-30.37c-7.68-8.86-16.65-13.34-25.87-13.34ZM1191.88,812.52l-8.36-9.63c-4.72-5.44-6.86-10.82-6.36-16,.47-4.87,3.24-9.32,8.23-13.23,10.41-8.15,21.21-6.79,30.42,3.83l8.42,9.71-32.36,25.32ZM1198.86,770.48c-4.05,0-8.18,1.58-12.23,4.75-4.55,3.56-7.06,7.54-7.48,11.85-.44,4.61,1.53,9.49,5.88,14.5l7.11,8.2,29.21-22.85-7.04-8.12c-4.8-5.53-10.06-8.32-15.45-8.32Z"/><path class="cls-3" d="M1313.3,745.84l-27.03-4.19c-.61.74-1.3,1.42-1.98,2.09l-12.07,11.79,16.03,14.8-9.93,9.7-55.01-50.77,21.99-21.5c14.05-13.73,30.15-15.42,42.33-4.18,8.33,7.69,10.34,17.38,5.99,27.15l30.37,4.67-10.69,10.45ZM1253.5,716.18l-11.61,11.34,21.93,20.24,11.61-11.35c8.71-8.51,9.13-16.68,2.21-23.06-6.92-6.38-15.43-5.68-24.14,2.83Z"/><path class="cls-3" d="M1278.35,781.4l-56.48-52.13,22.75-22.23c14.46-14.13,31.2-15.74,43.7-4.2,8.26,7.63,10.63,17.21,6.73,27.09l31.08,4.78-12.48,12.2-26.97-4.19c-.55.63-1.15,1.21-1.68,1.73l-11.31,11.06,16.03,14.8-11.36,11.1ZM1224.77,729.23l53.54,49.41,8.5-8.3-16.03-14.8,12.82-12.53c.65-.64,1.33-1.29,1.91-2.01l.36-.44,27.1,4.21,8.9-8.7-29.68-4.56.53-1.2c4.21-9.46,2.17-18.7-5.75-26.01-11.82-10.9-27.13-9.35-40.95,4.16l-21.24,20.76ZM1263.83,749.14l-23.4-21.6,12.36-12.08c8.96-8.75,18.02-9.77,25.51-2.85,3.34,3.08,5.06,6.55,5.11,10.31.07,4.62-2.39,9.4-7.3,14.21l-12.29,12.01ZM1243.34,727.5l20.45,18.88,10.93-10.68c4.51-4.4,6.76-8.69,6.7-12.75-.05-3.19-1.55-6.17-4.47-8.87-6.69-6.17-14.56-5.2-22.76,2.81h0s-10.86,10.61-10.86,10.61Z"/><path class="cls-3" d="M1329.77,641.77c-7.61,2.89-14.23,6.94-19.9,12.36l50.92,38.52-8.88,10.58-50.92-38.52c-4.3,6.46-7.04,13.57-8.31,21.26l-11.64-2.82c1.6-11.43,6.8-22.14,14.38-31.17,7.58-9.04,17.47-16.32,28.85-20.36l5.5,10.15Z"/><path class="cls-3" d="M1352.07,704.6l-50.82-38.44c-3.83,6.02-6.38,12.74-7.57,19.98l-.18,1.06-13.57-3.29.13-.9c1.57-11.21,6.62-22.16,14.6-31.67,8.02-9.57,18.15-16.71,29.28-20.66l.81-.29,6.45,11.9-1.07.41c-7.26,2.76-13.39,6.48-18.7,11.34l50.81,38.44-10.16,12.11ZM1300.76,663.28l51.01,38.58,7.59-9.05-51.02-38.59.85-.81c5.44-5.21,11.72-9.19,19.17-12.16l-4.55-8.39c-10.48,3.89-20.01,10.71-27.61,19.77-7.53,8.97-12.36,19.25-14.02,29.77l9.72,2.35c1.37-7.48,4.15-14.4,8.28-20.59l.59-.88Z"/><path class="cls-3" d="M1380.12,655.94l-6.55-9.69c7.49-2.3,15.78-8.22,20.95-15.7,6.56-9.48,5.75-15.71.99-18.69-13.83-8.63-29.79,33.22-53.61,18.37-10.35-6.45-13.73-19.77-2.18-36.47,5.05-7.31,12.36-13.71,19.7-16.73l6.79,9.34c-7.18,3.36-12.98,8.34-16.65,13.65-6.5,9.4-5.3,15.63-.44,18.65,13.65,8.51,29.73-33.13,53.27-18.46,10.26,6.4,13.58,19.8,2.03,36.5-6.56,9.48-16.23,17.03-24.3,19.22Z"/><path class="cls-3" d="M1379.69,657.09l-7.7-11.4,1.29-.4c7.58-2.33,15.6-8.34,20.42-15.31,3.56-5.15,5.08-9.62,4.4-12.93-.38-1.83-1.43-3.29-3.12-4.34-5.35-3.33-11.4,2.08-18.41,8.36-9.38,8.39-21.04,18.84-35.2,10.01-5.06-3.15-8.33-7.72-9.46-13.21-1.52-7.34.9-15.87,6.99-24.68,5.32-7.69,12.85-14.08,20.14-17.08l.73-.3,7.96,10.95-1.1.51c-6.72,3.15-12.49,7.88-16.25,13.31-3.39,4.9-4.82,9.24-4.14,12.53.41,1.97,1.55,3.55,3.4,4.7,5.26,3.28,11.29-2.12,18.27-8.38,9.35-8.38,20.99-18.81,35-10.08,4.98,3.11,8.21,7.64,9.34,13.1,1.53,7.39-.9,15.97-7.02,24.82-6.65,9.62-16.41,17.32-24.86,19.61l-.69.19ZM1375.14,646.78l5.4,7.99c7.76-2.38,16.93-9.77,23.05-18.62,5.8-8.39,8.12-16.44,6.7-23.27-1.02-4.92-3.94-9-8.44-11.81-12.73-7.94-23.29,1.53-32.6,9.87-7.27,6.51-14.13,12.66-20.67,8.58-2.3-1.43-3.79-3.51-4.3-6-.81-3.9.69-8.64,4.45-14.07,3.75-5.42,9.38-10.17,15.96-13.46l-5.62-7.73c-6.72,2.98-13.6,8.93-18.53,16.06-5.77,8.35-8.08,16.35-6.67,23.14,1.02,4.94,3.98,9.06,8.56,11.92,12.88,8.03,23.47-1.44,32.81-9.81,7.29-6.53,14.18-12.69,20.8-8.57,2.14,1.34,3.54,3.29,4.02,5.63.81,3.91-.78,8.77-4.71,14.47-4.79,6.93-12.61,12.96-20.2,15.66Z"/></svg>